<svg width="180" height="36" viewBox="0 0 180 36" fill="none" xmlns="http://www.w3.org/2000/svg">
<g id="Group 41">
<path id="Vector" fill-rule="evenodd" clip-rule="evenodd" d="M15.9619 0.0282001C15.8397 2.1245 15.7175 4.21139 15.5953 6.37349L12.465 6.26069C12.3898 4.94463 12.3146 3.67557 12.2488 2.35011H7.36994V11.7035H9.47563C9.64484 11.0267 9.80465 10.3499 9.97385 9.64483H12.1548V16.0747H10.0115C9.84225 15.3885 9.66364 14.6741 9.47563 13.9502H7.37933V23.8771H12.277C12.4368 22.467 12.5872 21.057 12.7564 19.5811L16.0559 19.6939C16.1405 21.8936 16.2251 24.0651 16.3097 26.2742H0.263211V23.9711L2.51931 23.5857V2.55692L0 2.28431V0L15.9619 0.0282001Z" fill="#4A4A4A"/>
<path id="Vector_2" fill-rule="evenodd" clip-rule="evenodd" d="M72.7501 35.1666C72.7501 34.5274 72.8348 33.954 72.8724 33.3617L74.5738 32.9857V10.6033L72.5527 10.2931V8.41299L77.8922 7.67036C78.0896 8.35659 78.2682 9.00523 78.4562 9.67266L78.6724 9.48464C79.2665 8.78899 80.0276 8.25579 80.8843 7.93514C81.7411 7.61448 82.6652 7.5169 83.57 7.65156C85.9765 7.87717 87.3302 9.40004 87.9694 11.5715C88.2723 12.5433 88.4646 13.5461 88.5429 14.5609C88.7518 16.632 88.6822 18.7219 88.3361 20.7746C88.194 21.542 87.9703 22.292 87.6686 23.0119C87.2756 24.0144 86.5983 24.8804 85.7198 25.5033C84.8414 26.1262 83.8002 26.479 82.724 26.5182C81.5441 26.6556 80.3488 26.4839 79.2552 26.02L78.992 25.9448V32.9763L80.8063 33.3523C80.8063 33.9445 80.7311 34.5274 80.6935 35.1572L72.7501 35.1666ZM78.9638 23.4631C80.2913 24.0474 81.7927 24.0979 83.1564 23.6041C83.2811 23.5711 83.3943 23.5046 83.4838 23.4118C83.5733 23.319 83.6357 23.2034 83.664 23.0777C83.8333 22.382 84.0401 21.6864 84.1435 20.9814C84.4128 18.842 84.4475 16.6796 84.2469 14.5327C84.1979 13.7955 84.0623 13.0666 83.8427 12.3612C83.7754 12.0279 83.6398 11.7122 83.4445 11.4339C83.2492 11.1556 82.9984 10.9207 82.7078 10.7441C82.4173 10.5675 82.0934 10.453 81.7564 10.4077C81.4194 10.3624 81.0767 10.3874 80.7499 10.4811L80.5149 10.5375C80.07 10.6044 79.6655 10.8333 79.3792 11.1804C79.0928 11.5274 78.9449 11.9681 78.9638 12.4176V23.4443V23.4631Z" fill="#4A4A4A"/>
<path id="Vector_3" fill-rule="evenodd" clip-rule="evenodd" d="M132.151 23.9896L134.031 24.3656C134.031 25.0142 133.965 25.6253 133.928 26.2457H127.817C127.817 26.1141 127.817 25.9731 127.817 25.8415C127.817 21.7805 127.817 17.7195 127.817 13.6209C127.798 13.067 127.696 12.519 127.517 11.9947C127.417 11.6986 127.236 11.4363 126.995 11.237C126.755 11.0378 126.463 10.9095 126.154 10.8666C125.544 10.7246 124.905 10.7806 124.33 11.0264C124.067 11.1061 123.835 11.2656 123.667 11.4829C123.498 11.7002 123.401 11.9644 123.39 12.2391C123.39 16.0745 123.39 19.9192 123.39 23.764C123.384 23.8202 123.384 23.877 123.39 23.9332L125.185 24.2998C125.185 24.9297 125.11 25.5595 125.073 26.1799H117.251V24.2998L119.009 23.9238V10.782L116.998 10.5564V8.61051L122.187 7.86787L122.657 9.55055C123.051 9.25914 123.456 8.90193 123.907 8.61051C124.702 8.08174 125.612 7.75188 126.561 7.64881C127.51 7.54574 128.469 7.67246 129.359 8.01828C130.09 8.28362 130.731 8.75 131.208 9.3637C131.686 9.97739 131.98 10.7134 132.057 11.487C132.129 11.9409 132.164 12.4 132.16 12.8595C132.16 16.3377 132.16 19.819 132.16 23.3034L132.151 23.9896Z" fill="#4A4A4A"/>
<path id="Vector_4" fill-rule="evenodd" clip-rule="evenodd" d="M24.0274 23.9895L25.8323 24.3655C25.8323 25.0048 25.7571 25.6158 25.7195 26.2456H17.7667C17.7667 25.6252 17.8325 25.0142 17.8701 24.3655L19.5528 23.9989C19.675 23.5759 19.7126 11.4588 19.5528 10.7819L17.6069 10.5563V8.61044L22.8054 7.8678L23.2848 9.59749L23.7642 9.17445C24.5213 8.50406 25.4329 8.03204 26.4173 7.80071C27.4016 7.56938 28.4281 7.58597 29.4045 7.84901C30.2374 8.02776 30.9952 8.4582 31.5753 9.08202C32.1554 9.70584 32.5297 10.4929 32.6476 11.3366C32.7384 11.8074 32.7825 12.286 32.7792 12.7654C32.7792 16.2624 32.7792 19.7687 32.7792 23.2657V23.9895L34.6593 24.3562C34.6593 24.6758 34.6593 24.986 34.6593 25.2962C34.6593 25.6064 34.6593 25.926 34.6593 26.2362H28.4362V25.5406C28.4362 21.699 28.4362 17.8573 28.4362 14.0157C28.4345 13.5563 28.4 13.0977 28.3328 12.6432C28.296 12.1648 28.0836 11.7169 27.7366 11.3855C27.3896 11.0541 26.9324 10.8626 26.4527 10.8477C26.0715 10.7568 25.6729 10.769 25.2979 10.883C24.9229 10.997 24.585 11.2087 24.3188 11.4964C24.0937 11.7565 23.976 12.0926 23.9898 12.4364C23.9898 15.3599 23.9898 18.2741 23.9898 21.1976C23.9898 21.9214 23.9898 22.6359 23.9898 23.3597C23.9992 23.5759 24.018 23.7733 24.0274 23.9895Z" fill="#4A4A4A"/>
<path id="Vector_5" fill-rule="evenodd" clip-rule="evenodd" d="M160.258 10.2932L158.237 10.077V8.35676L164.188 7.67993C164.466 8.37646 164.634 9.11233 164.686 9.86084C164.686 14.326 164.686 18.7818 164.686 23.247V23.9709L166.566 24.3469C166.5 24.9861 166.444 25.5971 166.368 26.227H161.255C161.114 25.7757 160.954 25.2869 160.775 24.7511C160.606 24.8827 160.484 24.9673 160.371 25.0707C159.467 25.8572 158.351 26.3575 157.162 26.5081C155.974 26.6588 154.768 26.4529 153.697 25.9168C153.053 25.6069 152.498 25.1409 152.081 24.5613C151.664 23.9817 151.398 23.3069 151.309 22.5984C151.226 22.1046 151.185 21.6045 151.187 21.1037C151.187 17.7478 151.187 14.3824 151.187 11.0265V10.2745L149.156 10.0488V8.38496L155.069 7.69874C155.301 8.33534 155.453 8.99854 155.52 9.67283C155.52 13.198 155.52 16.7137 155.52 20.2389C155.519 20.7168 155.55 21.1942 155.614 21.6678C155.646 22.2464 155.905 22.7891 156.334 23.1781C156.764 23.5671 157.329 23.7709 157.908 23.7453C158.369 23.7435 158.827 23.6803 159.271 23.5573C159.561 23.4295 159.813 23.2307 160.006 22.9792C160.198 22.7278 160.324 22.4319 160.371 22.119C160.371 18.2397 160.371 14.3605 160.371 10.4813C160.342 10.4138 160.304 10.3505 160.258 10.2932Z" fill="#4A4A4A"/>
<path id="Vector_6" fill-rule="evenodd" clip-rule="evenodd" d="M62.8605 18.2457C62.7794 19.6485 63.1376 21.0417 63.8851 22.2315C64.2044 22.7304 64.6456 23.1398 65.1669 23.4211C65.6883 23.7023 66.2727 23.8461 66.8651 23.8389C68.0477 23.8576 69.2207 23.6237 70.3056 23.1527L70.8038 22.9553L71.5465 24.6662C71.2462 24.9036 70.9323 25.1233 70.6064 25.3242C69.5613 25.9374 68.4028 26.3326 67.2008 26.4861C65.9988 26.6395 64.7782 26.5481 63.6125 26.2172C62.6528 25.924 61.7703 25.421 61.0289 24.7446C60.2875 24.0683 59.7058 23.2355 59.3259 22.3067C58.4058 20.2434 58.0583 17.9703 58.3201 15.7264C58.414 14.3493 58.7514 12.9998 59.3165 11.7406C59.7176 10.7465 60.3555 9.86552 61.1746 9.17415C61.9938 8.48278 62.9694 8.002 64.0167 7.77361C65.0307 7.48188 66.1031 7.45937 67.1284 7.70827C68.1537 7.95718 69.0965 8.46891 69.8638 9.19307C70.7858 10.1667 71.4344 11.3665 71.7439 12.6712C72.111 14.0027 72.2883 15.3794 72.2703 16.7604C72.2029 17.2291 72.0667 17.6852 71.8661 18.1141L62.8605 18.2457ZM68.3127 15.8862C68.3127 15.3221 68.2375 14.8709 68.1811 14.4197C68.0989 13.3408 67.8016 12.2893 67.3069 11.327C67.0817 10.8506 66.681 10.4799 66.1886 10.2924C65.6962 10.1049 65.1503 10.1152 64.6654 10.3211C64.453 10.3778 64.2571 10.4841 64.0937 10.6311C63.9303 10.7782 63.804 10.9619 63.7253 11.1672C63.1519 12.6345 62.8339 14.1893 62.7853 15.764C62.7919 15.8915 62.814 16.0178 62.8511 16.14L68.3127 15.8862Z" fill="#4A4A4A"/>
<path id="Vector_7" fill-rule="evenodd" clip-rule="evenodd" d="M148.348 18.1334L139.314 18.2462C139.271 18.8769 139.322 19.5105 139.465 20.1263C139.62 21.0372 140.009 21.8923 140.593 22.608C140.91 22.9961 141.308 23.3099 141.76 23.5276C142.211 23.7452 142.705 23.8613 143.206 23.8676C144.349 23.909 145.487 23.7038 146.543 23.266C146.76 23.172 146.985 23.0968 147.248 22.9934L148 24.7231L147.7 24.9205C145.849 26.23 143.577 26.8031 141.326 26.5279C140.029 26.4053 138.796 25.9094 137.775 25.1002C136.754 24.2911 135.989 23.2034 135.573 21.9687C134.922 20.3709 134.595 18.6593 134.613 16.9338C134.631 15.2084 134.992 13.5038 135.677 11.9197C136.048 10.8939 136.674 9.97944 137.496 9.26242C138.319 8.54541 139.31 8.04942 140.377 7.8211C141.248 7.5838 142.159 7.53482 143.051 7.67746C143.943 7.82011 144.793 8.15108 145.547 8.64833C146.62 9.43091 147.427 10.5234 147.859 11.7787C148.466 13.374 148.747 15.0742 148.687 16.7797C148.626 17.2425 148.513 17.6967 148.348 18.1334ZM144.748 15.8867C144.721 14.686 144.534 13.4943 144.193 12.3427C144.011 11.7732 143.728 11.2414 143.357 10.7728C142.642 9.8328 140.443 10.0396 140.104 11.2993C139.784 12.3032 139.53 13.3269 139.343 14.3638C139.225 14.9486 139.203 15.5486 139.277 16.1405L144.748 15.8867Z" fill="#4A4A4A"/>
<path id="Vector_8" fill-rule="evenodd" clip-rule="evenodd" d="M116.217 18.1338L107.183 18.2466C107.082 19.7999 107.543 21.3378 108.48 22.5802C108.787 22.963 109.174 23.2735 109.615 23.4896C110.055 23.7057 110.537 23.8221 111.028 23.8305C112.192 23.8845 113.354 23.6823 114.431 23.2382L115.136 22.9562C115.371 23.5203 115.606 24.0561 115.869 24.6577C115.653 24.8081 115.465 24.9773 115.249 25.1089C113.262 26.3983 110.85 26.8605 108.527 26.3968C107.481 26.1866 106.501 25.7298 105.667 25.0644C104.833 24.399 104.17 23.5441 103.733 22.5708C102.771 20.5555 102.372 18.3176 102.577 16.0939C102.65 14.5948 103.001 13.1223 103.611 11.7509C104.268 10.1359 105.539 8.8478 107.146 8.16937C108.079 7.74841 109.096 7.5465 110.119 7.57909C111.142 7.61167 112.144 7.87789 113.049 8.35737C114.253 9.05713 115.177 10.1537 115.662 11.4595C116.334 13.1344 116.654 14.9294 116.602 16.7332C116.541 17.2159 116.411 17.6875 116.217 18.1338ZM112.635 15.8777C112.579 15.2761 112.551 14.7497 112.485 14.2232C112.392 13.2377 112.108 12.2797 111.648 11.4031C111.529 11.1521 111.361 10.9278 111.153 10.7436C110.945 10.5594 110.702 10.4192 110.439 10.3314C110.175 10.2436 109.897 10.2099 109.62 10.2326C109.343 10.2552 109.074 10.3336 108.828 10.4631C108.532 10.5775 108.292 10.8036 108.161 11.0929C107.665 12.2705 107.348 13.5158 107.221 14.7873C107.221 15.2291 107.146 15.6803 107.099 16.2161L112.635 15.8777Z" fill="#4A4A4A"/>
<path id="Vector_9" fill-rule="evenodd" clip-rule="evenodd" d="M50.9598 7.86761C51.1008 8.42224 51.223 8.93927 51.364 9.4939C51.5802 9.36229 51.787 9.23068 52.0126 9.10848C53.2687 8.39961 54.6641 7.97296 56.1018 7.85822C56.4112 7.803 56.73 7.84363 57.0156 7.97468C57.3013 8.10572 57.54 8.32093 57.6999 8.59145L57.1547 13.4891L54.2124 13.3669C54.0995 12.4738 53.9961 11.6278 53.8927 10.7442C53.2183 10.7905 52.5688 11.0178 52.0126 11.4022V24.0082L53.8363 24.4218C53.8363 25.0328 53.7705 25.625 53.7329 26.3018H45.8742V24.4782L47.5192 24.0551V10.7818L45.6392 10.5561V8.61026L50.9598 7.86761Z" fill="#4A4A4A"/>
<path id="Vector_10" fill-rule="evenodd" clip-rule="evenodd" d="M167.628 26.2741C167.628 25.6349 167.684 25.0426 167.713 24.394L169.348 23.9898V10.7822L167.468 10.5566V8.61071L172.827 7.86807C172.968 8.43209 173.099 8.93972 173.221 9.41915C173.958 9.03743 174.714 8.69539 175.487 8.3945C176.275 8.17138 177.075 7.99558 177.884 7.86807C178.206 7.78576 178.546 7.81319 178.851 7.94598C179.156 8.07878 179.408 8.30936 179.567 8.6013C179.388 10.1618 179.209 11.788 179.021 13.4801L176.088 13.3767C175.966 12.4367 175.863 11.6094 175.741 10.6506L173.861 11.2992V24.0086L175.684 24.4222C175.684 25.0426 175.6 25.6443 175.562 26.3023L167.628 26.2741Z" fill="#4A4A4A"/>
<path id="Vector_11" fill-rule="evenodd" clip-rule="evenodd" d="M98.2062 10.6409L96.3261 11.3272V24.0083L98.2062 24.4219C98.1498 25.0518 98.1028 25.644 98.0464 26.302H90.2064V24.469L91.8703 24.0459V10.7819L89.9902 10.5563V8.61044L95.3109 7.86779L95.7621 9.44707C96.2791 9.17446 96.7867 8.89244 97.3038 8.64803C98.2782 8.22933 99.3123 7.96606 100.368 7.86779C100.692 7.79703 101.03 7.82764 101.336 7.95544C101.642 8.08324 101.902 8.30206 102.079 8.58224C101.901 10.1427 101.731 11.769 101.543 13.4798L98.5916 13.3764C98.4506 12.474 98.3284 11.628 98.2062 10.6409Z" fill="#4A4A4A"/>
<path id="Vector_12" fill-rule="evenodd" clip-rule="evenodd" d="M40.9196 4.36133V8.1215H44.191C44.1158 8.94874 44.05 9.69138 43.9842 10.4622L41.0418 10.7912C41.0148 10.95 40.996 11.11 40.9854 11.2706C40.9854 14.8522 40.9854 18.4244 40.9854 22.0059C40.9667 22.2437 40.9667 22.4826 40.9854 22.7204C41.014 23.0627 41.1717 23.3815 41.4266 23.6119C41.6814 23.8423 42.0144 23.9672 42.3579 23.9612C42.9595 23.9612 43.5518 23.9612 44.238 23.9612L44.4354 25.8883C43.982 26.1595 43.4753 26.3294 42.9501 26.3865C41.8564 26.6228 40.7287 26.6579 39.6224 26.4899C38.8311 26.3891 38.0985 26.0193 37.5474 25.4425C36.9963 24.8658 36.6602 24.1171 36.5954 23.322C36.5766 22.9619 36.5766 22.601 36.5954 22.2409C36.5954 18.6406 36.5954 15.0496 36.5954 11.4493C36.5954 11.233 36.5954 11.0262 36.5484 10.8006L34.4897 10.4528C34.4897 9.71017 34.5555 8.97694 34.5932 8.1779L36.9151 8.0651C37.2629 6.89945 37.6013 5.7432 37.9491 4.55874L40.9196 4.36133Z" fill="#4A4A4A"/>
<path id="Vector_13" d="M179.981 25.1177C180.031 25.4309 179.983 25.7519 179.845 26.0375C179.707 26.323 179.485 26.5594 179.208 26.7146C178.932 26.8699 178.614 26.9366 178.298 26.9058C177.983 26.875 177.684 26.7481 177.443 26.5423C177.201 26.3365 177.029 26.0616 176.948 25.7547C176.868 25.4478 176.884 25.1237 176.994 24.826C177.103 24.5284 177.301 24.2715 177.562 24.09C177.822 23.9085 178.131 23.8111 178.448 23.811C178.825 23.7824 179.197 23.9037 179.484 24.1485C179.771 24.3933 179.95 24.7417 179.981 25.1177ZM177.414 25.1177C177.384 25.3376 177.421 25.5616 177.521 25.7598C177.621 25.958 177.78 26.1209 177.975 26.2267C178.17 26.3326 178.393 26.3762 178.614 26.352C178.834 26.3277 179.042 26.2366 179.21 26.0909C179.378 25.9452 179.497 25.7518 179.551 25.5366C179.606 25.3214 179.594 25.0946 179.516 24.8866C179.438 24.6786 179.299 24.4992 179.117 24.3725C178.934 24.2458 178.717 24.1778 178.495 24.1776C178.228 24.1595 177.963 24.2483 177.761 24.4244C177.558 24.6006 177.434 24.8499 177.414 25.1177ZM178.354 25.7381H177.931V24.5348C178.135 24.5185 178.339 24.5185 178.542 24.5348C178.728 24.5211 178.915 24.55 179.088 24.6194C179.134 24.6461 179.172 24.6845 179.198 24.7307C179.225 24.7769 179.239 24.8294 179.238 24.8826C179.238 25.0049 179.106 25.1177 178.918 25.1553C178.992 25.1706 179.059 25.2089 179.11 25.2646C179.16 25.3203 179.192 25.3906 179.2 25.4655C179.225 25.5648 179.256 25.6622 179.294 25.7569H178.824C178.774 25.677 178.742 25.5872 178.73 25.4937C178.727 25.4664 178.718 25.4401 178.704 25.4163C178.691 25.3925 178.672 25.3717 178.65 25.3551C178.629 25.3384 178.604 25.3263 178.577 25.3195C178.55 25.3126 178.523 25.3111 178.495 25.3151H178.354V25.7381ZM178.354 25.0425H178.477C178.627 25.0425 178.74 25.0425 178.74 24.9015C178.74 24.7604 178.636 24.751 178.495 24.751H178.354V25.0425Z" fill="#4A4A4A"/>
</g>
</svg>
