<svg width="166" height="55" viewBox="0 0 166 55" fill="none" xmlns="http://www.w3.org/2000/svg">
<g id="Rectangle Badge">
<g id="Symbole">
<path id="Vector" d="M17.4667 54.9796C20.8566 54.9796 23.6028 42.6709 23.6028 27.4898C23.6028 12.3087 20.8566 0 17.4667 0C14.0769 0 11.3267 12.3087 11.3267 27.5102C11.3267 42.7117 14.0728 55 17.4667 55" fill="#EF4130"/>
<path id="Vector_2" d="M4.19661 46.1953C6.51085 46.1953 8.38914 37.7858 8.38914 27.4165C8.38914 17.0472 6.49048 8.6377 4.19661 8.6377C1.90273 8.6377 0 17.0472 0 27.4165C0 37.7858 1.87829 46.1953 4.19661 46.1953Z" fill="#F8A084"/>
</g>
<path id="Vector_3" d="M40.3403 36.6246L42.2227 18.3102H44.0806L48.7498 34.1229L53.2683 18.3102H55.1262L57.0127 36.6449H54.7188L53.0361 20.1763L48.3628 36.6246H47.1405L42.3001 20.217L40.65 36.6246H40.3403Z" fill="#231F20"/>
<path id="Vector_4" d="M63.0957 36.6734L68.7183 20.217L68.099 18.3591H70.4744L76.4597 36.6734H74.1128L71.8312 29.7103H65.7807L63.4298 36.6734H63.0957ZM68.8487 20.6286L65.8581 29.4537H71.7375L68.8487 20.6286Z" fill="#231F20"/>
<path id="Vector_5" d="M84.9469 36.6734V18.6158H79.5728V18.3591H92.5496V18.6158H87.1918V36.6734H84.9469Z" fill="#231F20"/>
<path id="Vector_6" d="M97.7687 36.2131L97.6668 35.1782C98.9099 36.1772 100.456 36.7233 102.051 36.7264C102.576 36.7473 103.099 36.6609 103.59 36.4724C104.08 36.284 104.527 35.9975 104.903 35.6304C105.272 35.2611 105.56 34.8197 105.751 34.334C105.942 33.8482 106.03 33.3284 106.011 32.8069C106.028 31.9243 105.721 31.0662 105.147 30.3949C104.566 29.7098 103.861 29.1403 103.069 28.7162C102.255 28.2762 101.44 27.8239 100.625 27.3472C99.8023 26.8773 99.0886 26.2386 98.5306 25.473C97.9447 24.6547 97.6414 23.6678 97.6668 22.6617C97.6316 22.0194 97.7474 21.3778 98.0049 20.7884C98.2625 20.199 98.6546 19.6782 99.1499 19.2677C100.163 18.4608 101.428 18.0366 102.723 18.0699C104.093 18.0891 105.452 18.3243 106.749 18.7666L106.871 19.7689C105.691 18.8616 104.256 18.3472 102.768 18.298C101.868 18.2655 100.991 18.5856 100.323 19.1903C99.9886 19.5188 99.7287 19.9156 99.5613 20.3536C99.394 20.7917 99.3231 21.2607 99.3536 21.7287C99.3454 22.4426 99.5683 23.1401 99.9892 23.717C100.403 24.296 100.94 24.776 101.562 25.1226C102.189 25.4784 102.868 25.8696 103.599 26.296C104.341 26.7279 105.021 27.1598 105.636 27.5998C106.293 28.0676 106.833 28.6812 107.213 29.3926C107.643 30.1919 107.861 31.0885 107.845 31.9961C107.878 32.6951 107.744 33.392 107.454 34.029C107.164 34.6659 106.727 35.2247 106.178 35.6589C105.011 36.571 103.56 37.0453 102.079 36.9994C100.605 37.0207 99.1406 36.7536 97.7687 36.2131Z" fill="#231F20"/>
<path id="Vector_7" d="M115.056 18.3591H117.301V30.9204C117.301 32.5502 117.664 33.7725 118.397 34.6648C118.767 35.1022 119.234 35.4484 119.759 35.6766C120.285 35.9048 120.856 36.0089 121.428 35.9808C122.887 35.9808 124.024 35.5245 124.831 34.6118C125.637 33.6992 126.053 32.3139 126.053 30.46L126.02 18.3591H126.33L126.301 30.46C126.301 32.5597 125.803 34.1718 124.806 35.2963C124.293 35.8605 123.662 36.3042 122.958 36.5959C122.253 36.8875 121.493 37.0197 120.732 36.9831C119.982 37.0099 119.234 36.8844 118.533 36.6141C117.833 36.3438 117.195 35.9343 116.657 35.4104C115.598 34.3619 115.07 32.8137 115.072 30.7656L115.056 18.3591Z" fill="#231F20"/>
<path id="Vector_8" d="M134.328 36.6734V18.3591H136.569V28.6795L144.828 18.3591H145.17L139.796 25.0656L146.682 36.6734H144.078L138.272 26.9764L136.569 29.091V36.6734H134.328Z" fill="#231F20"/>
<path id="Vector_9" d="M153.364 34.4366C151.938 32.7417 151.225 30.4329 151.225 27.5102C151.225 24.5875 151.938 22.2787 153.364 20.5837C154.792 18.8888 156.487 18.0413 158.448 18.0413C160.41 18.0413 162.103 18.8888 163.529 20.5837C164.955 22.276 165.67 24.5848 165.672 27.5102C165.675 30.4356 164.961 32.7444 163.529 34.4366C162.103 36.1315 160.41 36.9777 158.448 36.9749C156.487 36.9722 154.792 36.1261 153.364 34.4366ZM155.042 20.763C154.113 22.3928 153.649 24.6418 153.649 27.5102C153.649 30.3785 154.113 32.6262 155.042 34.2533C155.971 35.8993 157.107 36.721 158.448 36.7183C159.79 36.7155 160.916 35.8939 161.826 34.2533C162.755 32.6235 163.22 30.3758 163.22 27.5102C163.22 24.6445 162.755 22.3955 161.826 20.763C160.897 19.1333 159.771 18.3184 158.448 18.3184C157.126 18.3184 155.99 19.136 155.042 20.7712V20.763Z" fill="#231F20"/>
</g>
</svg>
