<svg width="78" height="78" viewBox="0 0 78 78" fill="none" xmlns="http://www.w3.org/2000/svg">
<g id="Group">
<path id="Subtract" fill-rule="evenodd" clip-rule="evenodd" d="M0 0H77.5905V77.5905H0V0ZM26.8762 71.1315C28.1351 71.1315 29.3393 70.7757 30.4341 70.0641L30.7078 70.9946H33.2257V63.1672C33.2257 61.1966 31.6383 59.965 28.8193 59.965C26.7667 59.965 25.234 60.6766 24.2214 62.0724L26.1372 63.1672C26.7667 62.3735 27.6699 61.9356 28.7646 61.9356C29.8594 61.9356 30.4615 62.3735 30.4615 63.1672V63.7693C25.8909 64.2893 23.674 65.5756 23.674 67.9841C23.674 69.7904 24.8509 71.1315 26.8762 71.1315ZM27.7246 69.1883C26.9035 69.1883 26.4383 68.5041 26.4383 67.7925C26.4383 66.5061 27.6972 65.8493 30.352 65.4935V68.0388C29.4762 68.8051 28.6278 69.1883 27.7246 69.1883ZM35.4426 60.5124L37.7963 60.1839L38.0426 61.4703C39.3837 60.5124 40.4237 59.9924 41.7648 59.9924C43.9817 59.9924 45.1311 61.1692 45.1311 63.4956V71.022H42.2848V63.9882C42.2848 62.6745 41.929 62.0724 40.9164 62.0724C40.0679 62.0724 39.2195 62.4555 38.2616 63.2766V71.022H35.4426V60.5124ZM58.8703 65.603C58.8703 69.1609 60.7861 71.2136 63.9608 71.2136C66.1777 71.2136 67.8198 70.3925 68.723 68.8325L66.643 67.683C65.9861 68.6409 65.2745 69.0788 64.2072 69.0788C62.5377 69.0788 61.6892 68.0662 61.6619 66.0135H68.8599C68.8599 65.9346 68.8662 65.8493 68.8727 65.7607C68.8798 65.6651 68.8872 65.5656 68.8872 65.4661C68.8872 61.9356 67.0261 59.965 63.9061 59.965C60.7861 59.965 58.8703 62.0177 58.8703 65.603ZM63.9335 61.8808C65.2745 61.8808 66.0956 62.7293 66.0956 64.1798H61.744C61.8534 62.7019 62.6471 61.8808 63.9335 61.8808ZM9.55172 71.323C6.73273 71.323 4.21481 69.5441 4.21481 65.6303C4.21481 61.7166 6.7601 59.9376 9.55172 59.9376C12.3707 59.9376 14.8886 61.7166 14.8886 65.6303C14.8886 69.5441 12.3707 71.323 9.55172 71.323ZM9.55172 62.3187C7.44432 62.3187 7.03379 64.2345 7.03379 65.603C7.03379 66.9988 7.41695 68.8872 9.55172 68.8872C11.6865 68.8872 12.0696 66.9714 12.0696 65.603C12.0696 64.2345 11.6591 62.3187 9.55172 62.3187ZM19.5413 60.2113H16.8318V70.9673H19.7329V63.7966C20.1434 62.8387 21.5119 62.6472 22.7435 62.6472H22.8803V59.9924C22.7708 59.965 22.634 59.965 22.5246 59.965H22.5245C21.3203 59.965 20.0613 60.7861 19.5413 61.4703V60.2113ZM52.0828 68.6956C54.2449 68.6682 54.4091 66.4787 54.4091 65.0556C54.4091 63.3587 53.5881 61.9903 52.0554 61.9903C51.0428 61.9903 49.8933 62.7292 49.8933 65.165C49.9207 66.5061 50.0028 68.6956 52.0828 68.6956ZM57.1734 60.266V70.4198C57.1734 72.2262 57.0365 75.182 51.8912 75.2367C49.7564 75.2367 47.8133 74.3883 47.4027 72.5546L50.1943 72.1167C50.3038 72.6367 50.6322 73.1841 52.2196 73.1841C53.6976 73.1841 54.4091 72.4725 54.4091 70.803V69.544L54.3818 69.5167C53.9439 70.3104 53.2323 71.0767 51.5902 71.0767C49.0722 71.0767 47.1017 69.3251 47.1017 65.6851C47.1017 62.0724 49.1543 60.0471 51.4533 60.0471C53.5521 60.0471 54.3615 60.9755 54.5823 61.5055L54.8197 60.266H57.1734ZM68.8599 56.5987H69.9546V56.1334H67.1356V56.5987H68.2578V59.6913H68.8599V56.5987ZM74.0326 59.6913H74.5526V56.1334H73.6494L72.6094 58.8429L71.542 56.1334H70.6388V59.6913H71.241V56.7081H71.2683L72.4452 59.6913H72.8283L74.0052 56.7081H74.0326V59.6913Z" fill="black" fill-opacity="0.3"/>
</g>
</svg>
