<svg width="230" height="55" viewBox="0 0 230 55" fill="none" xmlns="http://www.w3.org/2000/svg">
<g id="Group">
<g id="Group_2">
<path id="Vector" d="M16.412 8.206C16.412 3.674 12.738 0 8.206 0C3.674 0 0 3.674 0 8.206C0 12.738 3.674 16.412 8.206 16.412C12.738 16.412 16.412 12.738 16.412 8.206Z" fill="black" fill-opacity="0.3"/>
<path id="Vector_2" d="M35.7059 8.206C35.7059 3.674 32.0319 0 27.4999 0C22.9679 0 19.2939 3.674 19.2939 8.206C19.2939 12.738 22.9679 16.412 27.4999 16.412C32.0319 16.412 35.7059 12.738 35.7059 8.206Z" fill="black" fill-opacity="0.3"/>
<path id="Vector_3" d="M54.9999 8.206C54.9999 3.674 51.3259 0 46.7939 0C42.2619 0 38.5879 3.674 38.5879 8.206C38.5879 12.738 42.2619 16.412 46.7939 16.412C51.3259 16.412 54.9999 12.738 54.9999 8.206Z" fill="black" fill-opacity="0.3"/>
<path id="Vector_4" d="M35.7059 27.4999C35.7059 22.9679 32.0319 19.2939 27.4999 19.2939C22.9679 19.2939 19.2939 22.9679 19.2939 27.4999C19.2939 32.0319 22.9679 35.7059 27.4999 35.7059C32.0319 35.7059 35.7059 32.0319 35.7059 27.4999Z" fill="black" fill-opacity="0.3"/>
<path id="Vector_5" d="M35.7059 46.794C35.7059 42.262 32.0319 38.588 27.4999 38.588C22.9679 38.588 19.2939 42.262 19.2939 46.794C19.2939 51.326 22.9679 55 27.4999 55C32.0319 55 35.7059 51.326 35.7059 46.794Z" fill="black" fill-opacity="0.3"/>
</g>
<g id="Group_3">
<path id="Vector_6" d="M72.49 21.098H64.856V16.544H84.876V21.098H77.22V42.042H72.49V21.098Z" fill="black" fill-opacity="0.3"/>
<path id="Vector_7" d="M96.866 31.13C96.47 28.754 94.9081 26.95 92.3121 26.95C89.5401 26.95 87.9341 28.776 87.3841 31.13H96.866ZM100.87 36.586C100.474 38.038 98.1641 42.416 92.3121 42.416C86.8561 42.416 82.8521 38.412 82.8521 32.758C82.8521 27.104 86.8561 23.1 92.3121 23.1C97.4161 23.1 101.42 27.104 101.42 32.384C101.42 32.934 101.354 33.374 101.31 33.704L101.244 34.21H87.406C87.802 36.806 89.7381 38.588 92.3341 38.588C94.4901 38.588 95.7881 37.356 96.1621 36.586H100.87Z" fill="black" fill-opacity="0.3"/>
<path id="Vector_8" d="M108.702 16.544H104.148V42.042H108.702V16.544Z" fill="black" fill-opacity="0.3"/>
<path id="Vector_9" d="M125.444 31.13C125.048 28.754 123.486 26.95 120.89 26.95C118.118 26.95 116.512 28.776 115.962 31.13H125.444ZM129.47 36.586C129.074 38.038 126.764 42.416 120.912 42.416C115.456 42.416 111.452 38.412 111.452 32.758C111.452 27.104 115.456 23.1 120.912 23.1C126.016 23.1 130.02 27.104 130.02 32.384C130.02 32.934 129.954 33.374 129.91 33.704L129.844 34.21H116.006C116.402 36.806 118.338 38.588 120.934 38.588C123.09 38.588 124.388 37.356 124.762 36.586H129.47Z" fill="black" fill-opacity="0.3"/>
<path id="Vector_10" d="M134.2 27.852H131.098V23.474H134.2V20.746C134.2 17.974 135.982 16.192 138.754 16.192H142.758V20.196H140.03C139.304 20.196 138.754 20.746 138.754 21.472V23.474H142.758V27.852H138.754V42.064H134.2V27.852Z" fill="black" fill-opacity="0.3"/>
<path id="Vector_11" d="M165.11 23.474H169.29L169.664 25.3H169.84C170.17 24.904 170.61 24.53 171.072 24.2C171.908 23.65 173.184 23.1 174.944 23.1C179.124 23.1 182.226 26.202 182.226 30.932V42.042H177.672V31.306C177.672 28.93 176.022 27.302 173.668 27.302C171.292 27.302 169.664 28.952 169.664 31.306V42.042H165.11V23.474Z" fill="black" fill-opacity="0.3"/>
<path id="Vector_12" d="M211.222 35.134C210.628 38.038 208.34 42.416 202.488 42.416C197.032 42.416 193.028 38.412 193.028 32.758C193.028 27.104 197.032 23.1 202.488 23.1C208.362 23.1 210.65 27.478 211.222 30.206H206.668C206.272 29.15 205.216 27.302 202.488 27.302C199.76 27.302 197.56 29.48 197.56 32.758C197.56 36.036 199.738 38.214 202.488 38.214C205.238 38.214 206.272 36.388 206.668 35.112H211.222V35.134Z" fill="black" fill-opacity="0.3"/>
<path id="Vector_13" d="M224.62 34.034H220.792C218.416 34.034 217.338 34.936 217.338 36.41C217.338 37.862 218.394 38.786 220.242 38.786C223.014 38.786 224.62 37.18 224.62 34.606V34.034ZM224.972 40.238H224.796C224.466 40.634 224.026 41.008 223.52 41.338C222.64 41.888 221.364 42.438 219.516 42.438C215.292 42.438 212.784 39.842 212.784 36.784C212.784 33.132 215.336 30.58 220.44 30.58H224.62V30.206C224.62 28.16 223.388 26.752 221.342 26.752C219.296 26.752 218.24 28.072 218.064 29.128H213.51C213.906 26.07 216.392 23.122 221.342 23.122C226.072 23.122 229.174 26.246 229.174 30.228V42.064H225.346L224.972 40.238Z" fill="black" fill-opacity="0.3"/>
<path id="Vector_14" d="M185.724 23.474H190.278V42.042H185.724V23.474ZM190.696 18.106C190.696 16.61 189.486 15.4 187.99 15.4C186.494 15.4 185.284 16.61 185.284 18.106C185.284 19.602 186.494 20.812 187.99 20.812C189.486 20.79 190.696 19.602 190.696 18.106Z" fill="black" fill-opacity="0.3"/>
<path id="Vector_15" d="M157.828 32.758C157.828 29.48 155.65 27.302 152.9 27.302C150.172 27.302 147.972 29.48 147.972 32.758C147.972 36.036 150.15 38.214 152.9 38.214C155.65 38.214 157.828 36.036 157.828 32.758ZM162.382 32.758C162.382 38.412 158.378 42.416 152.9 42.416C147.444 42.416 143.44 38.412 143.44 32.758C143.44 27.104 147.444 23.1 152.9 23.1C158.378 23.1 162.382 27.104 162.382 32.758ZM154.55 15.642H159.28L154.902 20.922H151.074L154.55 15.642Z" fill="black" fill-opacity="0.3"/>
</g>
</g>
</svg>
