<svg width="129" height="64" viewBox="0 0 129 64" fill="none" xmlns="http://www.w3.org/2000/svg">
<g id="layer1">
<path id="path108" d="M116.13 29.1514H129V42.0219H116.13V29.1514ZM77.5204 29.1514H90.3887V42.0219H77.5204V29.1514ZM38.9091 29.1514H51.7795V42.0219H38.9091V29.1514ZM30.7165 49.8018C30.7165 53.8847 31.3124 56.535 32.5085 57.7568C33.5195 58.798 35.2426 59.439 37.6584 59.6778C38.3747 59.7381 39.603 59.7659 41.3369 59.7659V63.3433H10.3256V59.7659C12.8167 59.7659 14.6516 59.6477 15.8391 59.4088C18.2419 58.9033 19.7563 57.5029 20.378 55.2076C20.7028 54.018 20.8685 52.2153 20.8685 49.8017V3.04173C15.6067 3.19026 11.4916 4.93262 8.52078 8.27124C5.69845 11.4657 3.9775 16.3553 3.35151 22.9422L0 22.3635L0.62384 0H51.0386L51.6646 22.3635L48.3088 22.9422C47.685 16.3553 45.9489 11.4657 43.1159 8.27124C40.13 4.93262 35.9955 3.19017 30.7165 3.04173V49.8018ZM0.061114 29.1514H12.9315V42.0219H0.061114V29.1514Z" fill="black" fill-opacity="0.3"/>
</g>
</svg>
