<svg width="102" height="90" viewBox="0 0 102 90" fill="none" xmlns="http://www.w3.org/2000/svg">
<g id="20180622104752!Vodafone_2017_logo 1" clip-path="url(#clip0_3_150)">
<g id="Group">
<g id="Group_2">
<path id="Vector" d="M3.54397 76.5775L6.94028 85.2769L10.2258 76.5775H13.6222L8.36156 89.6826H5.44517L0 76.5775H3.54397Z" fill="black" fill-opacity="0.3"/>
<path id="Vector_2" d="M14.6927 79.4151C15.2834 78.295 16.0771 77.4736 17.0369 76.9882C17.9967 76.5028 19.0119 76.2601 20.0456 76.2601C21.5038 76.2601 22.722 76.6522 23.7188 77.4549C24.7155 78.239 25.38 79.1537 25.7123 80.2365C26.063 81.3566 26.2476 82.3087 26.2476 83.0927C26.2476 84.4182 25.9522 85.6503 25.3616 86.8077C24.9186 87.6851 24.3279 88.3945 23.608 88.8986C22.8882 89.4026 22.2052 89.72 21.5776 89.8507C20.9501 89.9627 20.4332 90.0374 20.0456 90.0374C19.0119 90.0374 18.089 89.832 17.3138 89.44C16.5386 89.0479 15.8925 88.5066 15.3757 87.8532C14.8589 87.1998 14.4712 86.4717 14.2128 85.6503C13.9544 84.8289 13.8252 83.9888 13.8252 83.1301C13.8252 81.7486 14.1205 80.5352 14.6927 79.4151ZM17.2953 84.6422C17.4245 85.1276 17.6091 85.557 17.8491 85.9117C18.089 86.2664 18.4028 86.565 18.772 86.7704C19.1412 86.9757 19.5657 87.0878 20.0456 87.0878H20.2117C20.7286 87.0878 21.1531 86.9571 21.5038 86.6771C21.8914 86.3597 22.1868 85.9863 22.4267 85.557C22.6482 85.1276 22.8143 84.6795 22.9066 84.2128C22.962 83.8768 22.9989 83.5968 22.9989 83.3541C22.9989 83.2608 22.9989 83.1674 22.9805 83.0927C22.9805 82.1033 22.7774 81.2819 22.3713 80.6098C21.9653 79.9378 21.5407 79.5271 21.0793 79.3404C20.6547 79.1724 20.3409 79.0977 20.101 79.1164H20.0272C19.2704 79.1164 18.6428 79.3964 18.1444 79.9378C17.7383 80.3858 17.4615 80.8899 17.3138 81.4499C17.1661 82.01 17.0923 82.5514 17.0923 83.0927C17.0923 83.6341 17.1661 84.1568 17.2953 84.6422Z" fill="black" fill-opacity="0.3"/>
<path id="Vector_3" d="M28.7393 79.415C29.1454 78.5563 29.7176 77.9029 30.4559 77.4175C31.1942 76.9321 31.8772 76.6148 32.5232 76.4654C33.1139 76.3161 33.5938 76.2601 33.963 76.2601H34.0737C34.7013 76.2601 35.4396 76.3908 36.2887 76.6521V71.5557H39.5927V89.7013H36.5471L36.4179 88.6932C36.1041 89.0479 35.698 89.3466 35.1997 89.6079C34.7013 89.8693 34.1106 90 33.4277 90C32.5417 90 31.748 89.8133 31.065 89.4213C30.3821 89.0292 29.8099 88.5252 29.3484 87.8904C28.887 87.2557 28.5363 86.509 28.2963 85.6876C28.0563 84.8475 27.9271 83.9888 27.9271 83.074C27.9087 81.6739 28.1855 80.4605 28.7393 79.415ZM31.3419 84.5675C31.4527 85.0715 31.6372 85.5009 31.8772 85.8743C32.1171 86.2476 32.4309 86.5463 32.8001 86.7703C33.1693 86.9944 33.6123 87.1064 34.1106 87.1064C34.5167 87.1064 34.9413 86.9944 35.3658 86.7703C35.7903 86.5463 36.1041 86.285 36.2887 85.9676V79.4897C35.5873 79.2283 34.9782 79.0977 34.4798 79.0977C33.5569 79.0977 32.8001 79.3964 32.2279 80.0124C31.6742 80.6098 31.3419 81.2072 31.2496 81.7859C31.1758 82.1966 31.1389 82.5326 31.1389 82.7753C31.1389 82.85 31.1389 82.9247 31.1573 82.9807C31.1573 83.5407 31.2127 84.0634 31.3419 84.5675Z" fill="black" fill-opacity="0.3"/>
<path id="Vector_4" d="M41.8818 83.9888C42.1771 83.4661 42.5647 83.0367 43.0446 82.682C43.5245 82.3273 44.0414 82.0473 44.5767 81.8606C45.112 81.6739 45.6288 81.5433 46.0718 81.4872C46.3302 81.4499 47.2162 81.3379 48.7667 81.1512V80.9645C48.7667 80.2365 48.5821 79.7138 48.2129 79.4151C47.8438 79.1164 47.3454 78.9484 46.6809 78.9484C46.0349 78.9484 45.4073 79.0977 44.8166 79.3777C44.226 79.6578 43.783 79.9378 43.4692 80.1991L42.3617 77.8283C42.7308 77.4549 43.4323 77.0815 44.4659 76.7455C45.5365 76.3908 46.4594 76.2228 47.2346 76.2228C48.0653 76.2228 48.7851 76.3535 49.3943 76.6148C50.0034 76.8762 50.5202 77.2309 50.9263 77.6976C51.3324 78.1643 51.6277 78.687 51.8123 79.3031C51.9969 79.9191 52.0892 80.5538 52.0892 81.2446V89.6826H49.0066L48.8774 88.6932C48.5267 89.0853 48.0653 89.4026 47.5115 89.6453C46.9578 89.8693 46.3487 90 45.6842 90C45.1304 90 44.5951 89.9067 44.0968 89.72C43.5799 89.5333 43.1369 89.2533 42.7308 88.8986C42.3432 88.5439 42.011 88.1145 41.771 87.5918C41.5311 87.0691 41.4019 86.4904 41.4019 85.837C41.4388 85.1276 41.5864 84.5115 41.8818 83.9888ZM45.1673 86.8077C45.4811 87.0691 45.9241 87.1998 46.5148 87.1998C46.9393 87.1998 47.3639 87.1064 47.7699 86.9197C48.176 86.733 48.5267 86.509 48.8036 86.229V83.5594C47.7146 83.6901 46.9762 83.7835 46.6255 83.8395C45.9057 83.9888 45.4073 84.2315 45.1304 84.5862C44.8535 84.9409 44.7059 85.3329 44.7059 85.7436C44.6874 86.1917 44.8351 86.5277 45.1673 86.8077Z" fill="black" fill-opacity="0.3"/>
<path id="Vector_5" d="M53.8794 76.5775H55.596V75.8681C55.596 74.5986 55.8544 73.5905 56.3713 72.8438C56.8696 72.0784 57.4603 71.6304 58.1432 71.4623C58.7893 71.2943 59.3615 71.201 59.8598 71.1823C60.672 71.1823 61.3365 71.257 61.8718 71.4063C62.4071 71.5557 62.7209 71.6677 62.8132 71.7237L62.4255 74.5239C62.3148 74.4679 62.1118 74.3933 61.798 74.2999C61.4842 74.2066 61.0596 74.1506 60.5428 74.1506C60.0814 74.1506 59.6937 74.2813 59.3799 74.5613C59.0662 74.8413 58.9 75.2893 58.9 75.9427V76.5588H61.7057V79.2844H58.9369V89.6826H55.596V79.2844H53.8794V76.5775Z" fill="black" fill-opacity="0.3"/>
<path id="Vector_6" d="M63.2008 79.4151C63.7914 78.295 64.5852 77.4736 65.545 76.9882C66.5048 76.5028 67.52 76.2601 68.5537 76.2601C70.0119 76.2601 71.2301 76.6522 72.2268 77.4549C73.2236 78.239 73.8881 79.1537 74.2203 80.2365C74.571 81.3566 74.7556 82.3087 74.7556 83.0927C74.7556 84.4182 74.4603 85.6503 73.8696 86.8077C73.4266 87.6851 72.836 88.3945 72.1161 88.8986C71.3962 89.4026 70.7133 89.72 70.0857 89.8507C69.4581 89.9627 68.9413 90.0374 68.5537 90.0374C67.52 90.0374 66.5971 89.832 65.8219 89.44C65.0466 89.0479 64.4006 88.5066 63.8837 87.8532C63.3669 87.1998 62.9793 86.4717 62.7209 85.6503C62.4625 84.8289 62.3333 83.9888 62.3333 83.1301C62.3517 81.7486 62.6286 80.5352 63.2008 79.4151ZM65.8219 84.6422C65.9511 85.1276 66.1356 85.557 66.3756 85.9117C66.6156 86.2664 66.9293 86.565 67.2985 86.7704C67.6677 86.9757 68.0922 87.0878 68.5721 87.0878H68.7382C69.2551 87.0878 69.6796 86.9571 70.0303 86.6771C70.4179 86.3597 70.7133 85.9863 70.9532 85.557C71.1932 85.1276 71.3408 84.6795 71.4331 84.2128C71.4885 83.8768 71.5254 83.5968 71.5254 83.3541C71.5254 83.2608 71.5254 83.1674 71.507 83.0927C71.507 82.1033 71.3039 81.2819 70.8979 80.6098C70.4918 79.9378 70.0672 79.5271 69.6058 79.3404C69.1812 79.1724 68.8674 79.0977 68.6275 79.1164H68.5537C67.7969 79.1164 67.1693 79.3964 66.6709 79.9378C66.2648 80.3858 65.988 80.8899 65.8403 81.4499C65.6926 82.01 65.6188 82.5514 65.6188 83.0927C65.6188 83.6341 65.6926 84.1568 65.8219 84.6422Z" fill="black" fill-opacity="0.3"/>
<path id="Vector_7" d="M76.6939 76.5775H79.721L79.8872 77.6229C80.404 77.1935 80.9947 76.8575 81.6407 76.6148C82.3052 76.3721 82.9512 76.2601 83.6157 76.2601C84.6494 76.2601 85.5538 76.5028 86.2737 76.9695C87.012 77.4362 87.5289 78.1456 87.8242 79.0604C88.1195 79.9751 88.2672 80.9459 88.2672 81.954V89.72H84.9263V82.234C84.9263 81.2259 84.7232 80.4605 84.3171 79.9191C83.9111 79.3777 83.3389 79.0977 82.5821 79.0977C82.0652 79.0977 81.5853 79.2284 81.1423 79.5084C80.6993 79.7884 80.3117 80.0871 79.9979 80.4045V89.7013H76.657V76.5775H76.6939Z" fill="black" fill-opacity="0.3"/>
<path id="Vector_8" d="M90.7035 80.1991C91.0173 79.3404 91.4419 78.631 91.9956 78.0523C92.5494 77.4736 93.1769 77.0255 93.9153 76.7082C94.6351 76.3908 95.4104 76.2415 96.241 76.2415C97.6992 76.2415 98.8805 76.6522 99.8034 77.4549C100.726 78.2763 101.335 79.2284 101.594 80.3485C101.871 81.4313 102 82.4393 102 83.3728V83.9701H93.6015C93.6753 85.0716 94.0076 85.8743 94.6167 86.3597C95.2258 86.8451 96.0195 87.0878 96.9793 87.0878C97.8284 87.0878 98.5852 86.9571 99.2312 86.677C99.8773 86.4157 100.32 86.1543 100.56 85.9117L101.446 88.6559C101.059 88.9546 100.671 89.1599 100.32 89.272C100.099 89.384 99.5635 89.5146 98.7329 89.6827C97.9023 89.8693 97.1824 89.9627 96.5179 89.9627C95.6688 89.9627 94.8751 89.832 94.0999 89.552C93.3246 89.272 92.6601 88.8612 92.0879 88.2825C91.5157 87.7038 91.0543 86.9944 90.722 86.1543C90.3898 85.2956 90.2236 84.2875 90.2236 83.0927C90.2421 82.0286 90.3898 81.0392 90.7035 80.1991ZM98.6037 81.5619C98.5483 80.8152 98.3452 80.2551 97.9576 79.8444C97.5885 79.4524 97.2378 79.1911 96.887 79.0977C96.5548 79.0044 96.3333 78.9484 96.2041 78.9484C95.6319 78.9484 95.0781 79.1724 94.5613 79.6018C94.0445 80.0311 93.7492 80.6845 93.6569 81.5619H98.6037Z" fill="black" fill-opacity="0.3"/>
</g>
</g>
<path id="Vector_9" d="M65.1022 3.09894C59.3801 3.92035 54.9502 9.31549 54.8394 15.8867C62.758 17.3615 68.7385 22.738 68.7385 32.3335C68.7385 41.593 61.1337 49.079 51.6277 49.079C42.1771 49.0977 34.517 40.697 34.517 29.8133C34.517 14.804 47.6961 2.35221 64.3639 2.74424C60.4692 0.989421 56.1684 0 51.6277 0C34.4616 0 20.5256 14.0759 20.5256 31.4561C20.5256 48.8363 34.4616 62.9123 51.6277 62.9123C68.7938 62.9123 82.7298 48.8363 82.7298 31.4561C82.7298 18.967 75.5311 8.17673 65.1022 3.09894Z" fill="black" fill-opacity="0.3"/>
</g>
<defs>
<clipPath id="clip0_3_150">
<rect width="102" height="90" fill="white"/>
</clipPath>
</defs>
</svg>
