<svg width="180" height="32" viewBox="0 0 180 32" fill="none" xmlns="http://www.w3.org/2000/svg">
<g id="Group 42">
<path id="Vector" d="M10.4927 0C11.1432 1.72989 11.7881 3.46255 12.444 5.19244C15.7128 13.817 18.9816 22.4415 22.2504 31.0688C22.2919 31.1795 22.3307 31.293 22.3861 31.4508C22.2421 31.4508 22.1369 31.4508 22.029 31.4508C18.7657 31.4508 15.5025 31.4508 12.2392 31.4646C11.9763 31.4646 11.8545 31.3871 11.7604 31.1408C7.87157 20.8638 3.97447 10.5925 0.0801448 0.3183C0.0413952 0.21589 0.0247883 0.105177 -0.00012207 0H10.4927Z" fill="#4A4A4A"/>
<path id="Vector_2" d="M34.3295 0C30.5127 10.061 26.6986 20.1193 22.8597 30.2412C22.796 30.1084 22.7489 30.0281 22.7185 29.9423C21.0384 25.5193 19.3584 21.0936 17.6894 16.6678C17.634 16.5211 17.634 16.3191 17.6894 16.1724C19.6877 10.8803 21.6972 5.591 23.7038 0.301693C23.7426 0.199283 23.7924 0.102409 23.8367 0C27.3352 0 30.831 0 34.3295 0Z" fill="#4A4A4A"/>
<path id="Vector_3" d="M58.8332 0C59.6691 1.77141 60.5077 3.54281 61.3436 5.31699C61.7948 6.27465 62.2404 7.23232 62.6888 8.18999C62.7331 8.28686 62.7746 8.3865 62.8327 8.51936H34.5345C37.1196 5.6602 39.6771 2.83148 42.2318 0C47.7647 0 53.3003 0 58.8332 0Z" fill="#4A4A4A"/>
<path id="Vector_4" d="M135.264 19.5659C135.2 25.453 131.397 30.305 125.615 31.5062C120.948 32.4777 116.791 31.3706 113.481 27.7891C111.795 25.9623 110.86 23.7591 110.55 21.2957C110.162 18.2262 110.752 15.3615 112.473 12.7791C114.425 9.85079 117.181 8.11814 120.652 7.5535C123.976 7.01101 127.11 7.55903 129.93 9.44392C132.734 11.3177 134.4 13.9638 135.001 17.2741C135.136 18.0297 135.18 18.8047 135.264 19.5686V19.5659ZM130.863 19.3721C130.824 19.0538 130.785 18.467 130.683 17.8941C130.021 14.1907 126.996 11.2236 122.922 11.1821C120.553 11.1572 118.518 11.9599 116.938 13.7424C115.064 15.857 114.513 18.3646 114.934 21.1103C115.487 24.7223 118.396 27.8998 122.645 28.0022C124.768 28.052 126.656 27.4099 128.217 25.954C130.038 24.2518 130.816 22.0929 130.863 19.3721Z" fill="#4A4A4A"/>
<path id="Vector_5" d="M45.0023 31.4312H34.5482V9.3855H45.0023V31.4312Z" fill="#4A4A4A"/>
<path id="Vector_6" d="M154.32 7.77214H158.483C158.483 7.90223 158.483 8.02124 158.483 8.13749C158.483 12.4664 158.488 16.798 158.483 21.1269C158.48 22.7322 158.306 24.3182 157.752 25.8405C156.764 28.5613 154.907 30.4019 152.122 31.2377C149.529 32.0183 146.905 32.0238 144.328 31.1879C141.189 30.1694 139.36 27.9274 138.585 24.7693C138.308 23.6373 138.209 22.4831 138.206 21.3234C138.197 16.917 138.203 12.5079 138.203 8.10151V7.78044H142.371V8.15133C142.371 12.5688 142.369 16.989 142.371 21.4064C142.371 22.5634 142.551 23.6899 143.025 24.7555C143.866 26.6487 145.355 27.6534 147.389 27.9081C148.571 28.0547 149.734 27.98 150.846 27.551C152.734 26.8286 153.73 25.3617 154.107 23.4463C154.245 22.7488 154.306 22.0237 154.309 21.3123C154.326 16.9392 154.317 12.5632 154.317 8.19008C154.317 8.05999 154.317 7.92714 154.317 7.7666L154.32 7.77214Z" fill="#4A4A4A"/>
<path id="Vector_7" d="M84.8806 10.4206C84.1388 11.4613 83.4109 12.4854 82.6719 13.5261C82.3093 13.2853 81.9689 13.0473 81.6201 12.8259C80.2639 11.9651 78.808 11.3396 77.1999 11.1652C75.8741 11.024 74.5788 11.0932 73.419 11.9014C72.0379 12.8619 71.941 15.245 73.574 16.186C74.5511 16.7507 75.6084 17.0773 76.6851 17.3651C78.3015 17.7969 79.9456 18.1429 81.4845 18.8265C82.3065 19.1919 83.0843 19.6292 83.7624 20.2215C84.864 21.1847 85.448 22.4192 85.5726 23.8584C85.7137 25.4997 85.4674 27.0719 84.5291 28.4751C83.5078 30.003 82.038 30.9081 80.2943 31.3426C76.6795 32.2449 73.2447 31.6692 69.9897 29.9116C69.0154 29.3858 68.1242 28.7353 67.2689 27.9686C68.0993 26.9833 68.9213 26.0063 69.7572 25.0126C70.1143 25.2922 70.4547 25.5689 70.8035 25.8319C72.2178 26.892 73.765 27.6642 75.5309 27.9382C76.865 28.1458 78.1963 28.1928 79.4861 27.6974C80.405 27.3431 81.1274 26.7646 81.3599 25.7571C81.6367 24.5614 81.3433 23.5124 80.2307 22.8399C79.1955 22.2143 78.0496 21.9016 76.8927 21.611C75.279 21.2041 73.6543 20.836 72.1265 20.1551C71.0138 19.6596 69.9925 19.0341 69.2618 18.0294C68.3512 16.7756 68.138 15.3446 68.2266 13.85C68.4148 10.7057 70.6374 8.39183 73.8564 7.72202C77.878 6.88613 81.5426 7.80228 84.792 10.3238C84.8169 10.3431 84.8335 10.3708 84.8778 10.4234L84.8806 10.4206Z" fill="#4A4A4A"/>
<path id="Vector_8" d="M106.677 14.0382C105.786 13.421 104.958 12.7484 104.045 12.2281C101.15 10.5784 97.6235 10.8608 95.1076 12.9173C93.5853 14.16 92.6913 15.8013 92.3342 17.7167C91.8803 20.1634 92.2208 22.4967 93.6351 24.5836C95.2709 26.9972 97.582 28.1098 100.505 27.9936C102.769 27.9022 104.601 26.8837 106.243 25.425C106.414 25.2728 106.586 25.1178 106.735 24.985C107.649 25.8707 108.54 26.7398 109.487 27.6587C108.875 28.1984 108.305 28.7492 107.687 29.2446C105.756 30.8029 103.53 31.6001 101.059 31.78C98.0332 32.0014 95.2321 31.3814 92.7549 29.5906C90.0757 27.6504 88.4953 25.0099 87.9721 21.7577C87.4269 18.356 88.0552 15.1869 90.0563 12.3554C91.9523 9.67337 94.5679 8.0874 97.8062 7.55598C100.505 7.11313 103.134 7.37054 105.648 8.49151C106.882 9.0423 108.554 10.238 109.265 11.0573C108.385 12.0703 107.502 13.0861 106.672 14.041L106.677 14.0382Z" fill="#4A4A4A"/>
<path id="Vector_9" d="M172.502 11.5887V31.4036H168.322V11.6081H160.808V7.78296H180V11.5915H172.502V11.5887Z" fill="#4A4A4A"/>
<path id="Vector_10" d="M61.9025 9.43808C56.5799 14.4866 51.2574 19.5323 45.8851 24.6279C45.8768 24.4507 45.8657 24.3345 45.8657 24.2182C45.8657 20.6395 45.8657 17.0607 45.8602 13.4819C45.8602 13.23 45.9321 13.0529 46.1093 12.8757C47.2081 11.7852 48.2903 10.6781 49.3919 9.59031C49.5109 9.47406 49.7074 9.37442 49.868 9.37165C53.7955 9.36058 57.7258 9.36334 61.6533 9.36334H61.8748L61.8997 9.44084L61.9025 9.43808Z" fill="#4A4A4A"/>
<path id="Vector_11" d="M64.1138 31.4508H63.7651C59.7849 31.4508 55.802 31.4508 51.8219 31.4564C51.57 31.4564 51.3901 31.3816 51.2074 31.2128C49.508 29.6158 47.8002 28.0298 46.0953 26.4411C45.7631 26.1311 45.7631 25.893 46.087 25.5886C47.9165 23.8559 49.746 22.1233 51.5756 20.3906C51.6558 20.3159 51.7389 20.2439 51.8274 20.1609C55.9376 23.903 60.0368 27.6368 64.1387 31.3706L64.1193 31.4536L64.1138 31.4508Z" fill="#4A4A4A"/>
</g>
</svg>
